<svg xmlns="http://www.w3.org/2000/svg" viewBox="0 0 202.76 198.03"><defs><style>.cls-1,.cls-2,.cls-5{fill:#fff;}.cls-2{font-size:20.48px;letter-spacing:0.02em;}.cls-2,.cls-5{font-family:ReemKufi-Regular, Reem Kufi;}.cls-3{letter-spacing:0.02em;}.cls-10,.cls-11,.cls-12,.cls-4,.cls-6,.cls-7,.cls-8,.cls-9{fill:none;stroke:#fff;stroke-miterlimit:10;}.cls-5{font-size:10.99px;}.cls-6{stroke-width:3px;}.cls-7{stroke-dasharray:10.3 2.06 11.33 10.3;}.cls-8{stroke-dasharray:2.06 11.33 10.3 2.06 11.33 10.3;}.cls-9{stroke-dasharray:10.31 2.06 11.34 10.31;}.cls-10{stroke-dasharray:2.06 11.34 10.31 2.06 11.34 10.31;}.cls-11{stroke-dasharray:9.76 1.95 10.74 9.76;}.cls-12{stroke-dasharray:1.95 10.74 9.76 1.95 10.74 9.76;}</style></defs><g id="Layer_2" data-name="Layer 2"><g id="logoFlat"><g id="Layer_3" data-name="Layer 3"><path class="cls-1" d="M75.47,107.1c-.09-2.23-.17-4.67-.31-7.11,0-.64.22-1,.85-1.09a1.71,1.71,0,0,1,2.08,1.44c.32,1.47.55,3,.73,4.48.26,2.31.44,4.64.65,7,0,.52.06,1,.11,1.55,0,.31.12.61.21,1.08,1.38-.71,2.63-1.38,3.91-2a5.16,5.16,0,0,1,3.85-.62,2.17,2.17,0,0,1,1,.79.63.63,0,0,1-.26,1,10.28,10.28,0,0,0-3,2,13.2,13.2,0,0,1-1.8,1.17,10.45,10.45,0,0,0-2.91,2.35,8.9,8.9,0,0,1-3.73,2.4,2.06,2.06,0,0,0-1.27,1.24c-.22.61-.38,1.25-.62,1.86a1.3,1.3,0,0,1-.48.66c-.71.4-1.44.76-2.19,1.09a3.75,3.75,0,0,1-3.45-.05c-.73-.4-1.45-.83-2.15-1.28a.69.69,0,0,1-.26-.52,6.59,6.59,0,0,1,.41-1.67,5.07,5.07,0,0,0,.26-3c-.28-2.13-.56-4.26-.76-6.4a6.39,6.39,0,0,1,.25-1.82,1.76,1.76,0,0,1,1.56-1.44c.28,0,.55-.13.82-.17a1.45,1.45,0,0,0,1.1-.73,3.85,3.85,0,0,1,1.43-1,1.46,1.46,0,0,1,1.52-.21c.08,0,.27-.06.4-.12Zm3.09,7.09h0l-.66-1,.1-.07.88.48-.42-4.5-1-.2-.28,1.49-.11,0,0,0,.08-.1.95-1,.16.09c-.19.46-.37.91-.56,1.36v.13l0-.07.84-.26a2.87,2.87,0,0,1-.43.61c-.32.22-.69.38-1,.6-.14.1-.33.26-.34.4,0,.85,0,1.7,0,2.6l.68-.14-.6-.66Zm-7.78,7.92-3,.33c-.16.52-.38,1.15-.56,1.8,0,.15,0,.42.09.47.76.44,1.54.84,2.25,1.22.45-1.35.86-2.55,1.26-3.75v-.13Zm1.32-1.8.09.08-.16.41c.08,0,.13,0,.15,0l.28-.21a8.59,8.59,0,0,1,.22-3.66c-.38-.21-.74-.42-1.11-.61a1,1,0,0,0-.48-.14,1.27,1.27,0,0,1-1.59-.77,7.48,7.48,0,0,1-.5-1.34c-.1-.49-.37-.58-.8-.57a13.33,13.33,0,0,1-1.34-.14c.28,2.15.55,4.34.88,6.53.17,1.12.47,1.33,1.63,1.25a6.12,6.12,0,0,0,1.33-.31C71.17,120.68,71.63,120.48,72.1,120.31Zm4.63-5.09a1.77,1.77,0,0,1-2,1.38c-1,0-1,0-1.32.93a11.31,11.31,0,0,0-.27,1.41c0,.28-.08.56-.12.9,1.14,1.36,1.77,1.55,3.49,1,.4-.13.79-.26,1.18-.41A5.25,5.25,0,0,0,79.89,119c.41-.49.71-1,.14-1.55a.68.68,0,0,1-.87-.66,8.79,8.79,0,0,1-.15-1c0-.59-.35-.7-.82-.68S77.24,115.18,76.73,115.22ZM85,115l2.88-2.27c-.56-.83-3.22-.59-4.41.48l.69,1-.14.1c-.11-.06-.26-.1-.33-.2a1,1,0,0,0-1.33-.25c-.73.3-1.46.62-2.18.95a.33.33,0,0,0-.16.27,7.21,7.21,0,0,0,.84,2.7c1-.71,2.06-1.38,3.06-2.07a.73.73,0,0,0,.28-.35C84.35,114.78,84.56,114.68,85,115Zm-11-.35c.3-.44.72-.76,1.19-.43a4.43,4.43,0,0,1,.84,1.07,11.3,11.3,0,0,0,0-1.32,9.28,9.28,0,0,1,.41-3.95,1.88,1.88,0,0,0-.44-1.92c-.08-.11-.27-.24-.38-.21a8.19,8.19,0,0,0-1.62.49,1,1,0,0,0-.35.74C73.77,110.94,73.89,112.77,74,114.64Zm-2.12-1.3a7.16,7.16,0,0,0,1-.22.62.62,0,0,0,.32-.44c0-1.24-.07-2.47-.15-3.7a.55.55,0,0,0-.37-.37,1.61,1.61,0,0,0-1.68,1,2.92,2.92,0,0,0-.12,1.37c.31,1.49.7,3,1.06,4.45.21-.69.74-.85,1.35-.9l0-.86C72.08,113.85,72.08,113.85,71.87,113.34Zm-3.63-1.85a8.6,8.6,0,0,1,1.52,3,5.56,5.56,0,0,0,.51.91c.25-.34.44-.6.61-.86a.69.69,0,0,0,.16-.45c-.23-1.1-.51-2.19-.74-3.29-.09-.4-.35-.51-.65-.39-.53.22-1,.52-1.53.78a4.37,4.37,0,0,0-.44-.17,5.13,5.13,0,0,0-.58,1.37c0,.12.54.34.84.52l.08-.15-.48-.66.56.17Zm4.61,10.21c-.54,1.36-1.28,2.6-1.19,4.09.5.09,1.41-.26,1.51-.61.25-1,.47-2,.71-3Zm5-19.35a6.27,6.27,0,0,0-.2-1.48,3.72,3.72,0,0,0-.82-1.25,1,1,0,0,0-.85-.17c-.16,0-.32.46-.3.69.05.74.19,1.48.29,2.21ZM76,103v2.23h1.15l1.09.08v-.61c0-1.81-.32-2-2.15-1.75C76.06,103,76.05,103,76,103Zm.07,2.95a1.78,1.78,0,0,0,2.33,2.18c0-.15,0-.33,0-.5C78.23,105.85,77.89,105.6,76.06,106ZM71.55,121.9l-.7,1.66.53-.11L70.47,126H71l1-3.9Zm2.91-7.13-.19.94.15.18,1-.42Zm-1.06.65c-.36,0-.81-.29-.91.39C72.91,115.94,73.24,116,73.4,115.42Z"/><path class="cls-1" d="M126.77,105.08c0-1.87,0-3.63,0-5.38a26.3,26.3,0,0,0-.29-2.8c-.09-.68.07-1.1.6-1.28.73-.26,1.68,0,1.83.55.36,1.35.66,2.72.92,4.09.19.95.27,1.91.39,2.79a9.49,9.49,0,0,1,1.54-.25c.51,0,.7-.2.74-.67.11-1.14.24-2.27.37-3.4,0-.27.08-.52.11-.78.07-.56.23-1.06.86-1.18a1.5,1.5,0,0,1,1.63.61,2.25,2.25,0,0,1,.43,1.2c-.07,2.37-.2,4.73-.31,7.1-.11,2.16-.24,4.33-.32,6.5-.07,2-.08,4-.13,6a3.36,3.36,0,0,1-.92,2.26.93.93,0,0,0-.2.55c0,1.14,0,2.28,0,3.41a.35.35,0,0,1-.16.26c-2,1.15-4.1,2.05-6.5,1.39a11.49,11.49,0,0,1-1.83-.74.74.74,0,0,1-.32-.42,2.2,2.2,0,0,1-.08-.58,5,5,0,0,0-.91-3.16c-1-1.18-.9-2.8-1.17-4.25s-.47-3-.7-4.42a2.13,2.13,0,0,1,1.12-2.32,1.87,1.87,0,0,0,1.15-1.9,5.15,5.15,0,0,1,.14-1.18A2.45,2.45,0,0,1,126.77,105.08Zm-2.63,6.12-.62-.16-.07-.23-.52,1c.42-.1.81.28.88-.33,0,0,.23,0,.35,0,1.47.69,2.07,2.27,3.15,3.2l.85-1.59c-.58-1-1.25-2-2-3.13a.81.81,0,0,0-.6-.31A1.74,1.74,0,0,0,124.14,111.2Zm9.94,1.56c.63-.59.32-1.08,0-1.65s-.68-1.44-1-2.2h-1l0-.16.39-.3-.35-.38.69-.48c-.52-1.41-1.69-2.62-1.06-4.3a1.13,1.13,0,0,0-1.22.95c-.13.64-.22,1.3-.39,1.93-.2.78-.14,1.44.52,1.73a3.8,3.8,0,0,0-.16.86c.14,1.21.3,2.4,1.54,3.08.26.13.42.44.62.67l-.13.18-1.9-1a5.49,5.49,0,0,0,0,.83,1.23,1.23,0,0,1-.88,1.48.75.75,0,0,0-.3.41c-.15.48-.27,1-.39,1.45-.07.32-.25.71-.15,1,.32.8.76,1.57,1.12,2.27l-.64.48a6.49,6.49,0,0,1-1.22-3.65c-1.27-.22-1.85-1.22-2.51-2.12-.12-.16-.29-.42-.44-.42a8.64,8.64,0,0,0-1.68.18c-.39.09-.59.35-.44.85.23.77.32,1.59.51,2.37.3,1.21.27,2.48,1,3.6a1.94,1.94,0,0,0,2.91.86c.43-.22.85-.46,1.29-.64a1.87,1.87,0,0,1,.63,0l.45-.67a2.73,2.73,0,0,0,4.17-.44c.8-1.21.62-2.51.56-3.82,0-.92,0-1.84,0-2.79ZM127.47,110l.65-.2c.91-.26,1-.44.54-1.29s-.85-1.58-1.32-2.34c-.13-.22-.49-.52-.62-.47a2.05,2.05,0,0,0-1.08.73,7.07,7.07,0,0,0-.51,1.64A5.8,5.8,0,0,1,127,110c.54.73,1,1.52,1.53,2.32-.07-.82.51-1.06,1.12-1.29-.1-.26-.17-.48-.25-.7s-.17-.4-.28-.65C128.66,110.53,128.37,110.6,127.47,110Zm-1.85,12.44a10,10,0,0,1,.16,1.33,1.06,1.06,0,0,0,1,1.19c.68.11,1.34.34,2,.5v-3.67C127.75,122.28,126.89,123.28,125.62,122.48Zm9.21-17.37-2.08-.92a2.43,2.43,0,0,0,.14,2.37,19.77,19.77,0,0,1,.93,2.21,3.78,3.78,0,0,0,.55.73l.2-.12Zm-5.49-5.48c-.24-1.12-.42-2.12-.69-3.1-.17-.62-.75-.5-1.22-.43s-.55.44-.49.85c.17.94.35,1.88.53,2.88Zm6,1.45c-.06-1-.08-2-.22-3,0-.26-.45-.56-.75-.65s-.68.17-.71.34c-.2,1-.31,2-.44,3Zm-4.91,20.75v3.46c.4-.08.66-.12.9-.19a.87.87,0,0,0,.77-1.07,14,14,0,0,1,0-1.83c0-.36-.1-.52-.51-.44A7.33,7.33,0,0,1,130.4,121.83Zm-1.17-14,.16,0a3.06,3.06,0,0,1-.07-.79c.12-.78.27-1.55.43-2.32s-.09-1-.81-.91a7.65,7.65,0,0,0-.83.18c-.79.19-1,.63-.58,1.33C128.06,106.14,128.66,107,129.23,107.82Zm.4-4.72-.36-2.87a13.14,13.14,0,0,0-1.34.14c-.18,0-.46.21-.47.34-.09.8-.12,1.6-.17,2.39Zm5.63-1.54a14.9,14.9,0,0,0-1.61-.06.64.64,0,0,0-.49.38c-.17.6-.25,1.22-.35,1.76l2.25.43ZM122.88,113.2l1.77-.42v-.13l-1.65-.44Zm5.93-1,.64.77c.13-.16.36-.31.37-.47C129.83,112,129.42,112.12,128.81,112.23Z"/><path class="cls-1" d="M114.27,79.87a9.56,9.56,0,0,1-3.34,6.76c-.7.56-1.43,1.08-2.15,1.61a1.09,1.09,0,0,1-1.39,0,.85.85,0,0,0-1.37.26,19.72,19.72,0,0,0-1.53,2.91,1.76,1.76,0,0,1-1.23,1.18,11,11,0,0,1-4.57.19,2.38,2.38,0,0,0-.26,0c-2.26,0-3.54-1.4-4.54-3.18a1.16,1.16,0,0,1,0-.86c.21-.58.54-1.13.79-1.7a1.28,1.28,0,0,0,.08-.58,7.3,7.3,0,0,1,.65-3.83c.7-1.56,1.45-3.1,2.2-4.63A1.94,1.94,0,0,1,99.3,76.7a2.6,2.6,0,0,0,1.27-.7,3.68,3.68,0,0,1,2.22-1.18c.12,0,.24-.17.34-.28a2.59,2.59,0,0,1,4-.1.92.92,0,0,0,.84.1,1.78,1.78,0,0,1,2.28.54c1.13,1.2,2.34,2.32,3.45,3.53A4.47,4.47,0,0,1,114.27,79.87Zm-11.21,6-.54.13.27.46.38-.46.16-.09.87-.17-.64-2.49a5.27,5.27,0,0,1-1.21.46,4.5,4.5,0,0,1-1.14-.14c0-1.06,1-.83,1.43-1.19a11.92,11.92,0,0,1-.18-1.28,1.25,1.25,0,0,0-.55-1.15.89.89,0,0,1-.22-1.36,2.52,2.52,0,0,1,.19.26c.3-.07.55-.21.72-.14a13.39,13.39,0,0,1,1.76.92,1.27,1.27,0,0,1,.56.72,8.53,8.53,0,0,1,.07,4.2,4.65,4.65,0,0,0-.09.94,7.61,7.61,0,0,1,1.47-.31c.56,0,.56,0,.73-.48l-1.66-.18v-.28l2.09-.28V79.64l-2.5-.33c-.14-1.12.94-1,1.47-1.58-1.07-.65-2.07-1.3-3.11-1.87s-1.22-.49-2,.29a4,4,0,0,1-2.21,1.19,1.31,1.31,0,0,0-.86.66c-.9,2-1.73,4.1-2.58,6.16a4.53,4.53,0,0,0-.18,2.91,2.42,2.42,0,0,1-.65,2.72,4.62,4.62,0,0,0,3.85,2.12c.19,0,.5-.08.56-.21.28-.57.48-1.18.74-1.84-.79.06-1.49.18-2.18.16-.87,0-.84-1-1.34-1.41a6.93,6.93,0,0,1,1.34.24,4.78,4.78,0,0,0,3.55-.74c.31-.17.7-.78.6-1a22.58,22.58,0,0,0-1.45-2.56l-1.12.92-.12-.37-1,.37a2.22,2.22,0,0,1,.52-.75c.2-.21.42-.41.6-.64.59-.7.42-1.27-.39-1.63a11.58,11.58,0,0,1-1.25-.76s0,0-.1,0l0,.61c-.66-.52-.75-1-.38-1.62l1.06.74c-.16-.56-.44-1.06.38-1.08L101,83.71c.12.21.24.42.37.63.72,1.13.72,1.13,2,.71a2.2,2.2,0,0,1,.38,0l-.58.74Zm7-.72.13-.28.12-.32c.16-1.25.32-2.5.49-3.75.12-.83.12-.84-.74-.79a1.79,1.79,0,0,1-1.58-.59l1.66-.55c-1-1.17-2-2.32-3-3.38a5.63,5.63,0,0,0-1.67-1.12,1.29,1.29,0,0,0-1.76.76c1.24.83,2.49,1.63,3.69,2.5a1.58,1.58,0,0,1,.67,1,28.24,28.24,0,0,1,.25,3.55,20.88,20.88,0,0,1-.25,2.47l-1.25,2.17c1.25-1,1.25-1,2.69-.21l.55-1.42Zm2.8-6.39c-1-1.07-2-2.11-3-3.19a1.41,1.41,0,0,0-1.92-.32l2.63,2.9c.31.35.58.89,1,1S112.42,78.9,112.84,78.77Zm-1.28,1.07c-.12,1.12-.26,2.35-.36,3.57,0,.2.12.58.2.58.33,0,.89,0,1-.17a9.77,9.77,0,0,0,1.14-3.75ZM102.35,88c1.44.76,3.21.5,3.74-1-.43,0-.93,0-1.08.17a1.9,1.9,0,0,1-1.87.64A3,3,0,0,0,102.35,88Zm.41,1.86c-.66-.31-.87-.31-1.09.16-.3.65-.51,1.35-.76,2C101.84,92.25,102,91.93,102.76,89.9Zm1.94-7.05c-.15-.16-.27-.41-.45-.48a1,1,0,0,1-.72-1.21c0-.35,0-.71,0-1.23A1.84,1.84,0,0,0,104.7,82.85Zm6.09,2.66.15.16,1.07-.9C111.05,84.51,111.05,84.51,110.79,85.51Z"/><text class="cls-2" transform="translate(76.25 45.82)">LIAM<tspan class="cls-3"><tspan x="-27.97" y="19.72">MCKENNA</tspan></tspan></text><line class="cls-4" x1="64.45" y1="145.41" x2="138.93" y2="74.93"/><line class="cls-4" x1="138.93" y1="145.41" x2="64.45" y2="74.93"/><text class="cls-5" transform="translate(90.77 137.67)">2021</text><path class="cls-6" d="M101.79,196.47a1.6,1.6,0,0,1-1.39-.27L2.47,124.41a2.66,2.66,0,0,1-1-2.14V25.21S74.73,25.48,101.28,2c26.81,23.19,99.44,22.92,99.44,22.92h.54v97.36a2.67,2.67,0,0,1-1,2.14L102.35,196.2A1.7,1.7,0,0,1,101.79,196.47Z"/><path class="cls-4" d="M10.62,32.91v-1h1"/><path class="cls-7" d="M22.94,31.54c7.55-.39,17.83-1.19,28.69-2.84"/><path class="cls-8" d="M56.71,27.87c14.51-2.53,29.43-6.66,39.79-13.38"/><path class="cls-4" d="M100.65,11.44c.26-.21.51-.43.76-.65l.76.64"/><path class="cls-9" d="M111.74,17.47c8,4,17.6,6.8,27.4,8.86"/><path class="cls-10" d="M144.2,27.32a293.31,293.31,0,0,0,42,4.23"/><path class="cls-4" d="M191.38,31.64h1v1"/><line class="cls-11" x1="192.37" y1="43.38" x2="192.37" y2="70.71"/><path class="cls-12" d="M192.37,75.59v44.64a2.42,2.42,0,0,1-.88,1.94l-89.11,65.32a1.51,1.51,0,0,1-.51.25,1.46,1.46,0,0,1-1.26-.25l-89.1-65.32a2.4,2.4,0,0,1-.89-1.94V37.79"/></g></g></g></svg>