<?xml version="1.0" encoding="utf-8"?>
<!-- Generator: Adobe Illustrator 25.2.0, SVG Export Plug-In . SVG Version: 6.00 Build 0)  -->
<svg version="1.1" id="Layer_1" xmlns="http://www.w3.org/2000/svg" xmlns:xlink="http://www.w3.org/1999/xlink" x="0px" y="0px"
	 viewBox="0 0 512 512" style="enable-background:new 0 0 512 512;" xml:space="preserve">
<path fill="white" d="M472.6,249.4h-13.3c-1.5-48.2-20.2-94.3-52.6-130c-0.1-0.1-0.2-0.3-0.3-0.4c-0.2-0.2-0.4-0.5-0.7-0.7
	c-75.8-82.7-204.3-88.3-287.1-12.5c-4.3,4-8.5,8.1-12.5,12.5c-0.2,0.2-0.5,0.4-0.7,0.7c-0.1,0.1-0.2,0.3-0.3,0.4
	c-32.5,35.7-51.1,81.8-52.6,130H39.4C17.6,249.5,0,267.1,0,288.8v131.3c0,21.7,17.6,39.4,39.4,39.4h433.2
	c21.7,0,39.4-17.6,39.4-39.4V288.8C512,267.1,494.4,249.5,472.6,249.4z M157.6,249.4c0.7-27.7,6.5-54.9,17-80.5
	c23.9,9.1,49.2,14.1,74.8,14.8v65.8L157.6,249.4z M262.6,72.2c29.7,22.2,53.5,51.3,69.5,84.7c-22.3,8.3-45.7,13-69.5,13.7V72.2z
	 M249.4,170.6c-23.7-0.7-47.2-5.3-69.4-13.7c16-33.4,39.8-62.5,69.4-84.7L249.4,170.6z M262.6,183.7c25.6-0.7,50.9-5.7,74.8-14.8
	c10.5,25.6,16.3,52.9,17,80.5h-91.8L262.6,183.7z M367.5,249.4c-0.7-29.4-6.8-58.4-18-85.5c18.4-8.2,35.6-18.8,51.2-31.4
	c28,32.7,44.1,74,45.5,117L367.5,249.4z M391.9,122.8c-14.5,11.7-30.6,21.5-47.6,29.1c-15.7-33.1-38.6-62.2-67.1-85.1
	C320.6,71.7,361.2,91.4,391.9,122.8z M234.9,66.8c-28.5,22.9-51.5,52-67.2,85.1c-17.1-7.6-33.1-17.4-47.6-29.1
	C150.8,91.4,191.4,71.7,234.9,66.8L234.9,66.8z M111.3,132.5c15.6,12.7,32.8,23.2,51.2,31.4c-11.2,27.2-17.3,56.2-18,85.5H65.8
	C67.2,206.4,83.2,165.2,111.3,132.5z M498.9,420.1c0,14.5-11.8,26.2-26.3,26.3H39.4c-14.5,0-26.2-11.8-26.3-26.3V288.8
	c0-14.5,11.8-26.2,26.3-26.3h433.2c14.5,0,26.2,11.8,26.3,26.3L498.9,420.1z"/>
<g>
	<path fill="white" d="M69.6,324.1h14.3l-10,49.8h30.8l-2.4,11.6h-45L69.6,324.1z"/>
	<path fill="white" d="M117.2,324.1h14.3l-12.3,61.3H105L117.2,324.1z"/>
	<path fill="white" d="M201.1,324.1l-38.8,61.3h-13.9l-14.3-61.3h14.6l9.9,43.7l27.8-43.7H201.1z"/>
	<path fill="white" d="M216.3,335.5l-2.6,13.3h28.5l-2.2,11h-28.6l-2.8,14.2H242l-2.4,11.4h-47.5l12.3-61.3h46.4l-2.4,11.4H216.3z"/>
	<path fill="white" d="M319.4,372.3h-28.6l-8,13.1h-15.2l39.7-61.3h14l15.1,61.3h-14.2L319.4,372.3z M317,361.5l-5.2-23.7l-14.5,23.7H317z"/>
	<path fill="white" d="M394.2,329.1c4.2,3.4,6.3,8,6.3,14.1c0,5.1-1.2,9.6-3.6,13.5c-2.4,3.8-5.9,6.8-10.3,8.8c-4.5,2-9.7,3.1-15.8,3.1H357
		l-3.3,16.9h-14.3l12.3-61.3h24.8C384.1,324.1,390,325.7,394.2,329.1z M382.2,353.7c2.6-2.2,3.9-5.3,3.9-9.3c0-2.9-1-5.1-2.9-6.6
		c-2-1.5-4.8-2.2-8.5-2.2h-11.1l-4.3,21.3h12C376,356.9,379.7,355.8,382.2,353.7z"/>
	<path fill="white" d="M450.5,329.1c4.2,3.4,6.3,8,6.3,14.1c0,5.1-1.2,9.6-3.6,13.5c-2.4,3.8-5.9,6.8-10.3,8.8c-4.5,2-9.7,3.1-15.8,3.1h-13.7
		l-3.3,16.9h-14.3l12.3-61.3h24.8C440.4,324.1,446.3,325.7,450.5,329.1z M438.5,353.7c2.6-2.2,3.9-5.3,3.9-9.3c0-2.9-1-5.1-2.9-6.6
		c-2-1.5-4.8-2.2-8.5-2.2h-11.1l-4.3,21.3h12C432.3,356.9,435.9,355.8,438.5,353.7z"/>
</g>
</svg>
